<?xml version="1.0" encoding="UTF-8" standalone="no"?>
<!DOCTYPE svg PUBLIC "-//W3C//DTD SVG 1.1//EN"
 "http://www.w3.org/Graphics/SVG/1.1/DTD/svg11.dtd">
<!-- Generated by graphviz version 2.43.0 (0)
 -->
<!-- Title: OpenFOAM_Profiling_motorBike_GAMG_GridM_Dot Pages: 1 -->
<svg width="2343pt" height="417pt"
 viewBox="0.00 0.00 2342.50 417.00" xmlns="http://www.w3.org/2000/svg" xmlns:xlink="http://www.w3.org/1999/xlink">
<g id="graph0" class="graph" transform="scale(1 1) rotate(0) translate(4 413)">
<title>OpenFOAM_Profiling_motorBike_GAMG_GridM_Dot</title>
<polygon fill="white" stroke="transparent" points="-4,4 -4,-413 2338.5,-413 2338.5,4 -4,4"/>
<!-- 0 -->
<g id="node1" class="node">
<title>0</title>
<polygon fill="none" stroke="black" points="1292.5,-409 1139.5,-409 1139.5,-356 1292.5,-356 1292.5,-409"/>
<text text-anchor="middle" x="1216" y="-393.8" font-family="Times,serif" font-size="14.00">&quot;application::main&quot;</text>
<text text-anchor="middle" x="1216" y="-378.8" font-family="Times,serif" font-size="14.00">time=5.33e+01s</text>
<text text-anchor="middle" x="1216" y="-363.8" font-family="Times,serif" font-size="14.00">percent=100.00%</text>
</g>
<!-- 1 -->
<g id="node2" class="node">
<title>1</title>
<polygon fill="none" stroke="black" points="805,-320 613,-320 613,-267 805,-267 805,-320"/>
<text text-anchor="middle" x="709" y="-304.8" font-family="Times,serif" font-size="14.00">&quot;functionObjects.start()&quot;</text>
<text text-anchor="middle" x="709" y="-289.8" font-family="Times,serif" font-size="14.00">time=1.24e&#45;03s</text>
<text text-anchor="middle" x="709" y="-274.8" font-family="Times,serif" font-size="14.00">percent=0.00%</text>
</g>
<!-- 0&#45;&gt;1 -->
<g id="edge1" class="edge">
<title>0&#45;&gt;1</title>
<path fill="none" stroke="black" d="M1139.27,-368.33C1052.92,-353.52 912.06,-329.34 815.17,-312.72"/>
<polygon fill="black" stroke="black" points="815.5,-309.22 805.06,-310.98 814.32,-316.12 815.5,-309.22"/>
</g>
<!-- 4 -->
<g id="node5" class="node">
<title>4</title>
<polygon fill="none" stroke="black" points="1285,-320 1147,-320 1147,-267 1285,-267 1285,-320"/>
<text text-anchor="middle" x="1216" y="-304.8" font-family="Times,serif" font-size="14.00">&quot;time.run(</text>
<text text-anchor="middle" x="1216" y="-289.8" font-family="Times,serif" font-size="14.00">time=5.03e+01s</text>
<text text-anchor="middle" x="1216" y="-274.8" font-family="Times,serif" font-size="14.00">percent=94.29%</text>
</g>
<!-- 0&#45;&gt;4 -->
<g id="edge4" class="edge">
<title>0&#45;&gt;4</title>
<path fill="none" stroke="black" d="M1216,-355.87C1216,-347.89 1216,-338.93 1216,-330.38"/>
<polygon fill="black" stroke="black" points="1219.5,-330.25 1216,-320.25 1212.5,-330.25 1219.5,-330.25"/>
</g>
<!-- 21 -->
<g id="node22" class="node">
<title>21</title>
<polygon fill="none" stroke="black" points="1998.5,-320 1785.5,-320 1785.5,-267 1998.5,-267 1998.5,-320"/>
<text text-anchor="middle" x="1892" y="-304.8" font-family="Times,serif" font-size="14.00">&quot;functionObjects.execute()&quot;</text>
<text text-anchor="middle" x="1892" y="-289.8" font-family="Times,serif" font-size="14.00">time=1.04e+00s</text>
<text text-anchor="middle" x="1892" y="-274.8" font-family="Times,serif" font-size="14.00">percent=1.96%</text>
</g>
<!-- 0&#45;&gt;21 -->
<g id="edge21" class="edge">
<title>0&#45;&gt;21</title>
<path fill="none" stroke="black" d="M1292.56,-371.65C1410.34,-356.49 1636.83,-327.34 1775.18,-309.53"/>
<polygon fill="black" stroke="black" points="1775.92,-312.97 1785.4,-308.22 1775.03,-306.02 1775.92,-312.97"/>
</g>
<!-- 2 -->
<g id="node3" class="node">
<title>2</title>
<polygon fill="none" stroke="black" points="450,-231 266,-231 266,-178 450,-178 450,-231"/>
<text text-anchor="middle" x="358" y="-215.8" font-family="Times,serif" font-size="14.00">&quot;functionObjects::read&quot;</text>
<text text-anchor="middle" x="358" y="-200.8" font-family="Times,serif" font-size="14.00">time=1.07e&#45;03s</text>
<text text-anchor="middle" x="358" y="-185.8" font-family="Times,serif" font-size="14.00">percent=0.00%</text>
</g>
<!-- 1&#45;&gt;2 -->
<g id="edge2" class="edge">
<title>1&#45;&gt;2</title>
<path fill="none" stroke="black" d="M612.62,-268.61C565.25,-256.87 508.15,-242.72 460.04,-230.79"/>
<polygon fill="black" stroke="black" points="460.78,-227.37 450.23,-228.36 459.09,-234.16 460.78,-227.37"/>
</g>
<!-- 3 -->
<g id="node4" class="node">
<title>3</title>
<polygon fill="none" stroke="black" points="272,-142 0,-142 0,-89 272,-89 272,-142"/>
<text text-anchor="middle" x="136" y="-126.8" font-family="Times,serif" font-size="14.00">&quot;functionObject::forceCoeffs1::new&quot;</text>
<text text-anchor="middle" x="136" y="-111.8" font-family="Times,serif" font-size="14.00">time=9.87e&#45;04s</text>
<text text-anchor="middle" x="136" y="-96.8" font-family="Times,serif" font-size="14.00">percent=0.00%</text>
</g>
<!-- 2&#45;&gt;3 -->
<g id="edge3" class="edge">
<title>2&#45;&gt;3</title>
<path fill="none" stroke="black" d="M292.89,-177.98C267.14,-167.89 237.39,-156.23 210.76,-145.8"/>
<polygon fill="black" stroke="black" points="211.69,-142.4 201.11,-142.01 209.14,-148.92 211.69,-142.4"/>
</g>
<!-- 5 -->
<g id="node6" class="node">
<title>5</title>
<polygon fill="none" stroke="black" points="746,-231 592,-231 592,-178 746,-178 746,-231"/>
<text text-anchor="middle" x="669" y="-215.8" font-family="Times,serif" font-size="14.00">&quot;fvMatrix::solve.U&quot;</text>
<text text-anchor="middle" x="669" y="-200.8" font-family="Times,serif" font-size="14.00">time=1.01e+01s</text>
<text text-anchor="middle" x="669" y="-185.8" font-family="Times,serif" font-size="14.00">percent=18.87%</text>
</g>
<!-- 4&#45;&gt;5 -->
<g id="edge5" class="edge">
<title>4&#45;&gt;5</title>
<path fill="none" stroke="black" d="M1147,-281.53C1047.71,-265.73 864.58,-236.61 756.09,-219.35"/>
<polygon fill="black" stroke="black" points="756.58,-215.89 746.16,-217.77 755.48,-222.8 756.58,-215.89"/>
</g>
<!-- 12 -->
<g id="node13" class="node">
<title>12</title>
<polygon fill="none" stroke="black" points="1103.5,-231 952.5,-231 952.5,-178 1103.5,-178 1103.5,-231"/>
<text text-anchor="middle" x="1028" y="-215.8" font-family="Times,serif" font-size="14.00">&quot;fvMatrix::solve.p&quot;</text>
<text text-anchor="middle" x="1028" y="-200.8" font-family="Times,serif" font-size="14.00">time=6.01e+00s</text>
<text text-anchor="middle" x="1028" y="-185.8" font-family="Times,serif" font-size="14.00">percent=11.29%</text>
</g>
<!-- 4&#45;&gt;12 -->
<g id="edge12" class="edge">
<title>4&#45;&gt;12</title>
<path fill="none" stroke="black" d="M1160.86,-266.98C1139.44,-257.07 1114.74,-245.64 1092.5,-235.35"/>
<polygon fill="black" stroke="black" points="1093.68,-232.04 1083.13,-231.01 1090.74,-238.39 1093.68,-232.04"/>
</g>
<!-- 15 -->
<g id="node16" class="node">
<title>15</title>
<polygon fill="none" stroke="black" points="1310.5,-231 1121.5,-231 1121.5,-178 1310.5,-178 1310.5,-231"/>
<text text-anchor="middle" x="1216" y="-215.8" font-family="Times,serif" font-size="14.00">&quot;fvMatrix::solve.omega&quot;</text>
<text text-anchor="middle" x="1216" y="-200.8" font-family="Times,serif" font-size="14.00">time=1.59e+00s</text>
<text text-anchor="middle" x="1216" y="-185.8" font-family="Times,serif" font-size="14.00">percent=2.99%</text>
</g>
<!-- 4&#45;&gt;15 -->
<g id="edge15" class="edge">
<title>4&#45;&gt;15</title>
<path fill="none" stroke="black" d="M1216,-266.87C1216,-258.89 1216,-249.93 1216,-241.38"/>
<polygon fill="black" stroke="black" points="1219.5,-241.25 1216,-231.25 1212.5,-241.25 1219.5,-241.25"/>
</g>
<!-- 18 -->
<g id="node19" class="node">
<title>18</title>
<polygon fill="none" stroke="black" points="1479,-231 1329,-231 1329,-178 1479,-178 1479,-231"/>
<text text-anchor="middle" x="1404" y="-215.8" font-family="Times,serif" font-size="14.00">&quot;fvMatrix::solve.k&quot;</text>
<text text-anchor="middle" x="1404" y="-200.8" font-family="Times,serif" font-size="14.00">time=1.62e+00s</text>
<text text-anchor="middle" x="1404" y="-185.8" font-family="Times,serif" font-size="14.00">percent=3.04%</text>
</g>
<!-- 4&#45;&gt;18 -->
<g id="edge18" class="edge">
<title>4&#45;&gt;18</title>
<path fill="none" stroke="black" d="M1271.14,-266.98C1292.56,-257.07 1317.26,-245.64 1339.5,-235.35"/>
<polygon fill="black" stroke="black" points="1341.26,-238.39 1348.87,-231.01 1338.32,-232.04 1341.26,-238.39"/>
</g>
<!-- 24 -->
<g id="node25" class="node">
<title>24</title>
<polygon fill="none" stroke="black" points="1724.5,-231 1497.5,-231 1497.5,-178 1724.5,-178 1724.5,-231"/>
<text text-anchor="middle" x="1611" y="-215.8" font-family="Times,serif" font-size="14.00">&quot;objectRegistry::writeObject&quot;</text>
<text text-anchor="middle" x="1611" y="-200.8" font-family="Times,serif" font-size="14.00">time=3.86e&#45;04s</text>
<text text-anchor="middle" x="1611" y="-185.8" font-family="Times,serif" font-size="14.00">percent=0.00%</text>
</g>
<!-- 4&#45;&gt;24 -->
<g id="edge24" class="edge">
<title>4&#45;&gt;24</title>
<path fill="none" stroke="black" d="M1285.26,-277.25C1340.92,-264.99 1420.53,-247.45 1487.12,-232.79"/>
<polygon fill="black" stroke="black" points="1488.25,-236.12 1497.26,-230.55 1486.74,-229.28 1488.25,-236.12"/>
</g>
<!-- 6 -->
<g id="node7" class="node">
<title>6</title>
<polygon fill="none" stroke="black" points="466,-142 290,-142 290,-89 466,-89 466,-142"/>
<text text-anchor="middle" x="378" y="-126.8" font-family="Times,serif" font-size="14.00">&quot;lduMatrix::solver.Ux&quot;</text>
<text text-anchor="middle" x="378" y="-111.8" font-family="Times,serif" font-size="14.00">time=3.35e+00s</text>
<text text-anchor="middle" x="378" y="-96.8" font-family="Times,serif" font-size="14.00">percent=6.29%</text>
</g>
<!-- 5&#45;&gt;6 -->
<g id="edge6" class="edge">
<title>5&#45;&gt;6</title>
<path fill="none" stroke="black" d="M591.78,-180.41C555.38,-169.53 511.61,-156.44 473.18,-144.95"/>
<polygon fill="black" stroke="black" points="474.11,-141.58 463.53,-142.07 472.11,-148.29 474.11,-141.58"/>
</g>
<!-- 8 -->
<g id="node9" class="node">
<title>8</title>
<polygon fill="none" stroke="black" points="660,-142 484,-142 484,-89 660,-89 660,-142"/>
<text text-anchor="middle" x="572" y="-126.8" font-family="Times,serif" font-size="14.00">&quot;lduMatrix::solver.Uy&quot;</text>
<text text-anchor="middle" x="572" y="-111.8" font-family="Times,serif" font-size="14.00">time=3.03e+00s</text>
<text text-anchor="middle" x="572" y="-96.8" font-family="Times,serif" font-size="14.00">percent=5.69%</text>
</g>
<!-- 5&#45;&gt;8 -->
<g id="edge8" class="edge">
<title>5&#45;&gt;8</title>
<path fill="none" stroke="black" d="M640.42,-177.87C630.35,-168.83 618.89,-158.55 608.26,-149.03"/>
<polygon fill="black" stroke="black" points="610.49,-146.32 600.71,-142.25 605.82,-151.53 610.49,-146.32"/>
</g>
<!-- 10 -->
<g id="node11" class="node">
<title>10</title>
<polygon fill="none" stroke="black" points="854,-142 678,-142 678,-89 854,-89 854,-142"/>
<text text-anchor="middle" x="766" y="-126.8" font-family="Times,serif" font-size="14.00">&quot;lduMatrix::solver.Uz&quot;</text>
<text text-anchor="middle" x="766" y="-111.8" font-family="Times,serif" font-size="14.00">time=2.95e+00s</text>
<text text-anchor="middle" x="766" y="-96.8" font-family="Times,serif" font-size="14.00">percent=5.54%</text>
</g>
<!-- 5&#45;&gt;10 -->
<g id="edge10" class="edge">
<title>5&#45;&gt;10</title>
<path fill="none" stroke="black" d="M697.58,-177.87C707.65,-168.83 719.11,-158.55 729.74,-149.03"/>
<polygon fill="black" stroke="black" points="732.18,-151.53 737.29,-142.25 727.51,-146.32 732.18,-151.53"/>
</g>
<!-- 7 -->
<g id="node8" class="node">
<title>7</title>
<polygon fill="none" stroke="black" points="430,-53 230,-53 230,0 430,0 430,-53"/>
<text text-anchor="middle" x="330" y="-37.8" font-family="Times,serif" font-size="14.00">&quot;lduMatrix::smoother.Ux&quot;</text>
<text text-anchor="middle" x="330" y="-22.8" font-family="Times,serif" font-size="14.00">time=2.89e+00s</text>
<text text-anchor="middle" x="330" y="-7.8" font-family="Times,serif" font-size="14.00">percent=5.43%</text>
</g>
<!-- 6&#45;&gt;7 -->
<g id="edge7" class="edge">
<title>6&#45;&gt;7</title>
<path fill="none" stroke="black" d="M363.86,-88.87C359.26,-80.53 354.08,-71.14 349.18,-62.26"/>
<polygon fill="black" stroke="black" points="352.1,-60.31 344.21,-53.25 345.97,-63.7 352.1,-60.31"/>
</g>
<!-- 9 -->
<g id="node10" class="node">
<title>9</title>
<polygon fill="none" stroke="black" points="648,-53 448,-53 448,0 648,0 648,-53"/>
<text text-anchor="middle" x="548" y="-37.8" font-family="Times,serif" font-size="14.00">&quot;lduMatrix::smoother.Uy&quot;</text>
<text text-anchor="middle" x="548" y="-22.8" font-family="Times,serif" font-size="14.00">time=2.58e+00s</text>
<text text-anchor="middle" x="548" y="-7.8" font-family="Times,serif" font-size="14.00">percent=4.83%</text>
</g>
<!-- 8&#45;&gt;9 -->
<g id="edge9" class="edge">
<title>8&#45;&gt;9</title>
<path fill="none" stroke="black" d="M564.93,-88.87C562.7,-80.8 560.2,-71.74 557.82,-63.1"/>
<polygon fill="black" stroke="black" points="561.14,-61.96 555.1,-53.25 554.39,-63.82 561.14,-61.96"/>
</g>
<!-- 11 -->
<g id="node12" class="node">
<title>11</title>
<polygon fill="none" stroke="black" points="866,-53 666,-53 666,0 866,0 866,-53"/>
<text text-anchor="middle" x="766" y="-37.8" font-family="Times,serif" font-size="14.00">&quot;lduMatrix::smoother.Uz&quot;</text>
<text text-anchor="middle" x="766" y="-22.8" font-family="Times,serif" font-size="14.00">time=2.50e+00s</text>
<text text-anchor="middle" x="766" y="-7.8" font-family="Times,serif" font-size="14.00">percent=4.69%</text>
</g>
<!-- 10&#45;&gt;11 -->
<g id="edge11" class="edge">
<title>10&#45;&gt;11</title>
<path fill="none" stroke="black" d="M766,-88.87C766,-80.89 766,-71.93 766,-63.38"/>
<polygon fill="black" stroke="black" points="769.5,-63.25 766,-53.25 762.5,-63.25 769.5,-63.25"/>
</g>
<!-- 13 -->
<g id="node14" class="node">
<title>13</title>
<polygon fill="none" stroke="black" points="1110.5,-142 945.5,-142 945.5,-89 1110.5,-89 1110.5,-142"/>
<text text-anchor="middle" x="1028" y="-126.8" font-family="Times,serif" font-size="14.00">&quot;lduMatrix::solver.p&quot;</text>
<text text-anchor="middle" x="1028" y="-111.8" font-family="Times,serif" font-size="14.00">time=5.93e+00s</text>
<text text-anchor="middle" x="1028" y="-96.8" font-family="Times,serif" font-size="14.00">percent=11.13%</text>
</g>
<!-- 12&#45;&gt;13 -->
<g id="edge13" class="edge">
<title>12&#45;&gt;13</title>
<path fill="none" stroke="black" d="M1028,-177.87C1028,-169.89 1028,-160.93 1028,-152.38"/>
<polygon fill="black" stroke="black" points="1031.5,-152.25 1028,-142.25 1024.5,-152.25 1031.5,-152.25"/>
</g>
<!-- 14 -->
<g id="node15" class="node">
<title>14</title>
<polygon fill="none" stroke="black" points="1171.5,-53 884.5,-53 884.5,0 1171.5,0 1171.5,-53"/>
<text text-anchor="middle" x="1028" y="-37.8" font-family="Times,serif" font-size="14.00">&quot;lduMatrix::solver.coarsestLevelCorr&quot;</text>
<text text-anchor="middle" x="1028" y="-22.8" font-family="Times,serif" font-size="14.00">time=5.34e+00s</text>
<text text-anchor="middle" x="1028" y="-7.8" font-family="Times,serif" font-size="14.00">percent=10.01%</text>
</g>
<!-- 13&#45;&gt;14 -->
<g id="edge14" class="edge">
<title>13&#45;&gt;14</title>
<path fill="none" stroke="black" d="M1028,-88.87C1028,-80.89 1028,-71.93 1028,-63.38"/>
<polygon fill="black" stroke="black" points="1031.5,-63.25 1028,-53.25 1024.5,-63.25 1031.5,-63.25"/>
</g>
<!-- 16 -->
<g id="node17" class="node">
<title>16</title>
<polygon fill="none" stroke="black" points="1367.5,-142 1164.5,-142 1164.5,-89 1367.5,-89 1367.5,-142"/>
<text text-anchor="middle" x="1266" y="-126.8" font-family="Times,serif" font-size="14.00">&quot;lduMatrix::solver.omega&quot;</text>
<text text-anchor="middle" x="1266" y="-111.8" font-family="Times,serif" font-size="14.00">time=1.53e+00s</text>
<text text-anchor="middle" x="1266" y="-96.8" font-family="Times,serif" font-size="14.00">percent=2.88%</text>
</g>
<!-- 15&#45;&gt;16 -->
<g id="edge16" class="edge">
<title>15&#45;&gt;16</title>
<path fill="none" stroke="black" d="M1230.73,-177.87C1235.57,-169.45 1241.03,-159.95 1246.18,-150.98"/>
<polygon fill="black" stroke="black" points="1249.25,-152.66 1251.2,-142.25 1243.18,-149.18 1249.25,-152.66"/>
</g>
<!-- 17 -->
<g id="node18" class="node">
<title>17</title>
<polygon fill="none" stroke="black" points="1416.5,-53 1189.5,-53 1189.5,0 1416.5,0 1416.5,-53"/>
<text text-anchor="middle" x="1303" y="-37.8" font-family="Times,serif" font-size="14.00">&quot;lduMatrix::smoother.omega&quot;</text>
<text text-anchor="middle" x="1303" y="-22.8" font-family="Times,serif" font-size="14.00">time=1.09e+00s</text>
<text text-anchor="middle" x="1303" y="-7.8" font-family="Times,serif" font-size="14.00">percent=2.04%</text>
</g>
<!-- 16&#45;&gt;17 -->
<g id="edge17" class="edge">
<title>16&#45;&gt;17</title>
<path fill="none" stroke="black" d="M1276.9,-88.87C1280.41,-80.62 1284.36,-71.34 1288.1,-62.54"/>
<polygon fill="black" stroke="black" points="1291.36,-63.82 1292.05,-53.25 1284.91,-61.08 1291.36,-63.82"/>
</g>
<!-- 19 -->
<g id="node20" class="node">
<title>19</title>
<polygon fill="none" stroke="black" points="1580,-142 1416,-142 1416,-89 1580,-89 1580,-142"/>
<text text-anchor="middle" x="1498" y="-126.8" font-family="Times,serif" font-size="14.00">&quot;lduMatrix::solver.k&quot;</text>
<text text-anchor="middle" x="1498" y="-111.8" font-family="Times,serif" font-size="14.00">time=1.54e+00s</text>
<text text-anchor="middle" x="1498" y="-96.8" font-family="Times,serif" font-size="14.00">percent=2.89%</text>
</g>
<!-- 18&#45;&gt;19 -->
<g id="edge19" class="edge">
<title>18&#45;&gt;19</title>
<path fill="none" stroke="black" d="M1431.69,-177.87C1441.36,-168.92 1452.35,-158.75 1462.56,-149.3"/>
<polygon fill="black" stroke="black" points="1465.22,-151.61 1470.18,-142.25 1460.46,-146.47 1465.22,-151.61"/>
</g>
<!-- 20 -->
<g id="node21" class="node">
<title>20</title>
<polygon fill="none" stroke="black" points="1623,-53 1435,-53 1435,0 1623,0 1623,-53"/>
<text text-anchor="middle" x="1529" y="-37.8" font-family="Times,serif" font-size="14.00">&quot;lduMatrix::smoother.k&quot;</text>
<text text-anchor="middle" x="1529" y="-22.8" font-family="Times,serif" font-size="14.00">time=1.09e+00s</text>
<text text-anchor="middle" x="1529" y="-7.8" font-family="Times,serif" font-size="14.00">percent=2.04%</text>
</g>
<!-- 19&#45;&gt;20 -->
<g id="edge20" class="edge">
<title>19&#45;&gt;20</title>
<path fill="none" stroke="black" d="M1507.13,-88.87C1510.04,-80.71 1513.31,-71.54 1516.41,-62.82"/>
<polygon fill="black" stroke="black" points="1519.77,-63.84 1519.82,-53.25 1513.17,-61.49 1519.77,-63.84"/>
</g>
<!-- 22 -->
<g id="node23" class="node">
<title>22</title>
<polygon fill="none" stroke="black" points="2041,-231 1743,-231 1743,-178 2041,-178 2041,-231"/>
<text text-anchor="middle" x="1892" y="-215.8" font-family="Times,serif" font-size="14.00">&quot;functionObject::forceCoeffs1::execute&quot;</text>
<text text-anchor="middle" x="1892" y="-200.8" font-family="Times,serif" font-size="14.00">time=1.04e+00s</text>
<text text-anchor="middle" x="1892" y="-185.8" font-family="Times,serif" font-size="14.00">percent=1.95%</text>
</g>
<!-- 21&#45;&gt;22 -->
<g id="edge22" class="edge">
<title>21&#45;&gt;22</title>
<path fill="none" stroke="black" d="M1892,-266.87C1892,-258.89 1892,-249.93 1892,-241.38"/>
<polygon fill="black" stroke="black" points="1895.5,-241.25 1892,-231.25 1888.5,-241.25 1895.5,-241.25"/>
</g>
<!-- 23 -->
<g id="node24" class="node">
<title>23</title>
<polygon fill="none" stroke="black" points="2334.5,-231 2059.5,-231 2059.5,-178 2334.5,-178 2334.5,-231"/>
<text text-anchor="middle" x="2197" y="-215.8" font-family="Times,serif" font-size="14.00">&quot;functionObject::forceCoeffs1:write&quot;</text>
<text text-anchor="middle" x="2197" y="-200.8" font-family="Times,serif" font-size="14.00">time=1.48e&#45;03s</text>
<text text-anchor="middle" x="2197" y="-185.8" font-family="Times,serif" font-size="14.00">percent=0.00%</text>
</g>
<!-- 21&#45;&gt;23 -->
<g id="edge23" class="edge">
<title>21&#45;&gt;23</title>
<path fill="none" stroke="black" d="M1981.45,-266.98C2017.92,-256.58 2060.22,-244.52 2097.64,-233.84"/>
<polygon fill="black" stroke="black" points="2098.9,-237.12 2107.55,-231.01 2096.98,-230.39 2098.9,-237.12"/>
</g>
</g>
</svg>
